<svg xmlns="http://www.w3.org/2000/svg" width="1100" height="420" viewBox="0 0 1100 420" role="img" aria-label="Módulos LexOpen">
  <rect width="1100" height="420" fill="#f3f6f4"/>
  <text x="40" y="48" font-family="Georgia, serif" font-size="28" fill="#0c1c24">Mapa de módulos</text>
  <text x="40" y="78" font-family="ui-sans-serif, system-ui, sans-serif" font-size="14" fill="#1a3340" fill-opacity="0.7">Del matter HighQ a la práctica chilena  un solo producto</text>
  <!-- cards -->
  <g font-family="ui-sans-serif, system-ui, sans-serif">
    <g transform="translate(40,110)">
      <rect width="240" height="120" rx="18" fill="#0c1c24"/>
      <text x="20" y="38" font-size="18" fill="#f3f6f4" font-weight="700">Espacios / Sites</text>
      <text x="20" y="66" font-size="13" fill="#d6c4a8">VDR · Wiki · iSheets</text>
      <text x="20" y="88" font-size="13" fill="#d6c4a8">Q&amp;A · Workflows</text>
    </g>
    <g transform="translate(300,110)">
      <rect width="240" height="120" rx="18" fill="#1f6f78"/>
      <text x="20" y="38" font-size="18" fill="#f3f6f4" font-weight="700">Chile Litigation</text>
      <text x="20" y="66" font-size="13" fill="#f3f6f4">Causas RIT/RUC</text>
      <text x="20" y="88" font-size="13" fill="#f3f6f4">Plazos · Minutas · PJUD*</text>
    </g>
    <g transform="translate(560,110)">
      <rect width="240" height="120" rx="18" fill="#c47a3a"/>
      <text x="20" y="38" font-size="18" fill="#f3f6f4" font-weight="700">CRM + IA</text>
      <text x="20" y="66" font-size="13" fill="#f3f6f4">Clientes · Trámites</text>
      <text x="20" y="88" font-size="13" fill="#f3f6f4">Acciones LLM multi-proveedor</text>
    </g>
    <g transform="translate(820,110)">
      <rect width="240" height="120" rx="18" fill="#1a3340"/>
      <text x="20" y="38" font-size="18" fill="#f3f6f4" font-weight="700">Billing CLP/UF</text>
      <text x="20" y="66" font-size="13" fill="#d6c4a8">Horas · Gastos · Boletas</text>
      <text x="20" y="88" font-size="13" fill="#d6c4a8">Cuenta corriente</text>
    </g>
    <g transform="translate(40,260)">
      <rect width="240" height="120" rx="18" fill="#ffffff" stroke="#1f6f78" stroke-width="2"/>
      <text x="20" y="38" font-size="18" fill="#0c1c24" font-weight="700">Integraciones</text>
      <text x="20" y="66" font-size="13" fill="#1a3340">Google Workspace</text>
      <text x="20" y="88" font-size="13" fill="#1a3340">Obsidian · Hermes/LLM</text>
    </g>
    <g transform="translate(300,260)">
      <rect width="240" height="120" rx="18" fill="#ffffff" stroke="#c47a3a" stroke-width="2"/>
      <text x="20" y="38" font-size="18" fill="#0c1c24" font-weight="700">Conocimiento</text>
      <text x="20" y="66" font-size="13" fill="#1a3340">Jurisprudencia CS/CA/TC</text>
      <text x="20" y="88" font-size="13" fill="#1a3340">Búsqueda unificada</text>
    </g>
    <g transform="translate(560,260)">
      <rect width="240" height="120" rx="18" fill="#ffffff" stroke="#0c1c24" stroke-width="2"/>
      <text x="20" y="38" font-size="18" fill="#0c1c24" font-weight="700">Portal cliente</text>
      <text x="20" y="66" font-size="13" fill="#1a3340">Sites visibles</text>
      <text x="20" y="88" font-size="13" fill="#1a3340">Docs etiquetados</text>
    </g>
    <g transform="translate(820,260)">
      <rect width="240" height="120" rx="18" fill="#ffffff" stroke="#2a8f99" stroke-width="2"/>
      <text x="20" y="38" font-size="18" fill="#0c1c24" font-weight="700">Ops &amp; Audit</text>
      <text x="20" y="66" font-size="13" fill="#1a3340">Personas · Flujos</text>
      <text x="20" y="88" font-size="13" fill="#1a3340">Auditoría · Notificaciones</text>
    </g>
  </g>
  <text x="40" y="406" font-family="ui-sans-serif, system-ui, sans-serif" font-size="11" fill="#1a3340" fill-opacity="0.55">* Monitoreo PJUD opcional / modo demo  sin scraping agresivo</text>
</svg>
